<svg width="109" height="87" viewBox="0 0 109 87" fill="none" xmlns="http://www.w3.org/2000/svg">
<path fill-rule="evenodd" clip-rule="evenodd" d="M5.56258 27.9459C8.13291 17.7933 13.3268 8.8752 20.5436 5.25609C21.8486 4.60167 22.8876 3.14343 22.2332 1.83844C21.5787 0.533459 20.6496 0.410256 19.3446 1.06468C10.4661 5.5171 4.01835 14.3082 1.15848 25.6045C-1.73059 37.016 0.795932 51.8167 12.0013 60.2449C21.2598 67.2088 30.0225 66.4919 38.84 63.6691C41.6809 73.6757 51.5394 83.8222 63.7907 86.5063C70.9816 88.0817 92.3399 86.2599 98.901 66.9612C99.4116 65.4596 96.5617 64.7147 95.7448 65.9246C91.738 71.8592 80.8647 84.3651 63.3973 80.5382C53.2464 78.3143 46.1112 70.4842 43.7814 61.7021C45.7122 61.5375 46.6279 61.0088 49.4157 59.5159C60.0413 52.8558 68.3139 41.8304 70.3905 33.249C71.3973 29.0883 69.9888 25.0764 68.4626 22.1904C66.9074 19.2497 64.1957 17.4429 61.0179 17.0152C54.7713 16.1744 47.5847 20.5784 42.7278 29.5254C38.3037 37.6749 35.329 48.7793 36.7817 58.7575C29.1247 61.3554 22.3426 62.1175 14.6067 56.2989C7.26015 50.7731 3.02146 37.9831 5.56258 27.9459ZM41.7954 56.8681C40.8888 48.438 43.6917 38.8309 47.374 32.0476C51.6878 24.1012 56.7806 22.3565 59.966 22.7852C61.5042 22.9923 62.7099 23.8073 63.4424 25.1925C64.2039 26.6325 64.5775 28.9483 63.7813 32.2383C62.0988 39.1916 55.2161 48.6385 45.4839 54.7385C44.6001 55.2926 42.7072 56.3886 41.7954 56.8681ZM88.308 62.5839C88.7096 63.9875 89.7748 64.56 91.1784 64.1585L103.359 61.3999L103.996 73.6714C104.043 75.1306 105.039 75.9362 106.498 75.8898C107.957 75.8434 108.956 74.1251 108.91 72.6659L108.194 58.7373C108.168 57.9229 107.768 57.1659 107.109 56.6857C106.451 56.2055 105.608 56.0558 104.825 56.2799L92.2617 59.6908C90.8582 60.0923 87.9065 61.1803 88.308 62.5839Z" fill="#FFCA0E"/>
</svg>
