<svg width="18" height="18" viewBox="0 0 18 18" fill="none" xmlns="http://www.w3.org/2000/svg">
<path d="M8.55778 0.838171C8.74538 0.482597 9.25462 0.482596 9.44222 0.838169L11.9418 5.57567C12.0141 5.71279 12.146 5.8086 12.2987 5.83503L17.5768 6.74826C17.9729 6.8168 18.1303 7.30112 17.8501 7.58942L14.1168 11.4306C14.0088 11.5418 13.9584 11.6968 13.9805 11.8502L14.743 17.1521C14.8002 17.5501 14.3882 17.8494 14.0274 17.672L9.22062 15.3085C9.0815 15.2401 8.9185 15.2401 8.77938 15.3085L3.97258 17.672C3.6118 17.8494 3.19982 17.5501 3.25704 17.1521L4.01951 11.8502C4.04158 11.6968 3.99121 11.5418 3.88316 11.4306L0.149928 7.58942C-0.13027 7.30112 0.0270936 6.8168 0.423236 6.74826L5.70126 5.83503C5.85403 5.8086 5.98589 5.71279 6.05824 5.57567L8.55778 0.838171Z" fill="#FFCA0E"/>
</svg>
